<svg width="24" height="24" viewBox="0 0 24 24" fill="none" xmlns="http://www.w3.org/2000/svg">
<path d="M16 9C16.5044 9.67234 16.8311 10.461 16.95 11.293" stroke="#E00C33" stroke-width="2" stroke-linecap="round" stroke-linejoin="round"/>
<path d="M19.3672 5.63672C20.6462 6.91498 21.5105 8.54887 21.8474 10.3255C22.1844 12.102 21.9783 13.9389 21.2562 15.5967" stroke="#E00C33" stroke-width="2" stroke-linecap="round" stroke-linejoin="round"/>
<path d="M2 2L22 22" stroke="#E00C33" stroke-width="2" stroke-linecap="round" stroke-linejoin="round"/>
<path d="M7 7L6.413 7.587C6.2824 7.71838 6.12703 7.82253 5.95589 7.89342C5.78475 7.96432 5.60124 8.00054 5.416 8H3C2.73478 8 2.48043 8.10536 2.29289 8.29289C2.10536 8.48043 2 8.73478 2 9V15C2 15.2652 2.10536 15.5196 2.29289 15.7071C2.48043 15.8946 2.73478 16 3 16H5.416C5.60124 15.9995 5.78475 16.0357 5.95589 16.1066C6.12703 16.1775 6.2824 16.2816 6.413 16.413L9.796 19.797C9.8946 19.8958 10.0203 19.9631 10.1572 19.9904C10.2941 20.0177 10.436 20.0037 10.5649 19.9503C10.6939 19.8968 10.804 19.8063 10.8815 19.6902C10.959 19.5741 11.0002 19.4376 11 19.298V11" stroke="#E00C33" stroke-width="2" stroke-linecap="round" stroke-linejoin="round"/>
<path d="M9.82812 4.17256C9.92401 4.0763 10.0463 4.01069 10.1795 3.98404C10.3128 3.95738 10.4509 3.97088 10.5764 4.02283C10.702 4.07478 10.8093 4.16284 10.8847 4.27584C10.9601 4.38884 11.0003 4.52169 11.0001 4.65756V5.34356" stroke="#E00C33" stroke-width="2" stroke-linecap="round" stroke-linejoin="round"/>
</svg>
