<svg width="118" height="42" viewBox="0 0 118 42" fill="none" xmlns="http://www.w3.org/2000/svg">
<g clip-path="url(#clip0_545_827)">
<path d="M97.1141 6.07432C99.748 5.00739 102.646 4.72779 105.44 5.27061C108.235 5.81357 110.806 7.15546 112.827 9.12998C114.848 11.1048 116.23 13.6243 116.791 16.3722C117.352 19.1201 117.067 21.9694 115.974 24.5577C114.881 27.1457 113.03 29.3548 110.659 30.9083C108.288 32.4616 105.503 33.2917 102.654 33.296H95.9071V28.8077H102.651C104.618 28.8053 106.539 28.2337 108.169 27.1661C109.799 26.0986 111.064 24.5841 111.809 22.8194C112.555 21.055 112.749 19.1155 112.367 17.2452C111.985 15.3748 111.044 13.6534 109.658 12.2999C108.272 10.9463 106.504 10.022 104.575 9.64756C102.646 9.27322 100.646 9.46638 98.8309 10.2022C97.0164 10.938 95.4697 12.1816 94.3836 13.7716C93.2977 15.3615 92.7196 17.2282 92.7196 19.1349V41.8692H88.1922V19.1407C88.1938 16.338 89.0449 13.6001 90.6346 11.2745C92.2242 8.9495 94.4804 7.14138 97.1141 6.07432ZM11.036 5.84483C13.2649 5.37338 15.5752 5.46101 17.7625 6.09971C19.9482 6.73802 21.944 7.90701 23.575 9.50303L25.16 11.0421L22.0819 14.2286L20.492 12.671C19.1385 11.3432 17.423 10.4534 15.5663 10.1163C13.7095 9.77935 11.794 10.0098 10.0672 10.7774C8.34063 11.5452 6.87928 12.8166 5.8729 14.4288C4.8666 16.0412 4.36131 17.9211 4.4227 19.8263C4.48419 21.7316 5.10962 23.5743 6.21763 25.1173C7.32573 26.6602 8.866 27.8334 10.6385 28.4864C12.4108 29.1393 14.3357 29.243 16.1668 28.7853C17.9981 28.3275 19.6534 27.3289 20.9188 25.9151L22.369 24.2501L25.6346 27.2237L24.2235 28.8722L24.2147 28.8829L24.2049 28.8937C22.904 30.3454 21.3154 31.5078 19.5409 32.3048C17.7662 33.1017 15.8448 33.5153 13.9012 33.5196H13.8915C11.6138 33.5194 9.37082 32.9557 7.36118 31.878C5.35164 30.8003 3.63633 29.2416 2.36606 27.3409C1.09586 25.4401 0.308807 23.2535 0.0740706 20.9757C-0.160546 18.6981 0.16423 16.3968 1.01938 14.2745C1.87472 12.1521 3.23495 10.2719 4.9813 8.80186C6.72768 7.33187 8.80719 6.31633 11.036 5.84483ZM72.7733 5.00205C75.4706 4.96017 78.1367 5.55943 80.5565 6.74717L81.0379 6.99229L81.0536 7.00108L81.0711 7.01182C82.6149 7.89562 84.8502 9.67597 84.8758 12.6485L84.8846 13.6583L80.9442 14.3976V12.6925C80.9441 11.9706 80.2938 11.0401 78.6043 10.2149C77.0042 9.43357 74.8539 8.95911 72.8114 8.95909H72.8055C71.4323 8.95216 70.0652 9.15581 68.7528 9.56358C67.2271 10.0874 66.4522 10.8329 66.0418 11.4933C65.6187 12.1746 65.5145 12.8774 65.5145 13.3946C65.5145 14.0522 65.9643 14.9217 67.577 15.5802C69.2564 16.1732 70.9809 16.6282 72.7333 16.9405L72.7411 16.9425L72.7489 16.9435C74.382 17.2554 75.9971 17.6563 77.5877 18.1417H77.6366L77.7528 18.1661C79.4288 18.5009 81.0203 19.1688 82.4344 20.129L82.7157 20.3253L82.7352 20.339L82.7547 20.3546C83.4519 20.9003 84.0082 21.6071 84.3768 22.4132C84.7452 23.219 84.916 24.102 84.8749 24.9874C84.8837 26.1516 84.6218 27.3025 84.1053 28.3458C83.5773 29.4125 82.8002 30.3354 81.8407 31.0362L81.8348 31.0411C79.7509 32.5418 76.8988 33.2933 73.6317 33.296L73.6327 33.297C70.7558 33.3413 67.914 32.6568 65.369 31.3067L65.3338 31.2872C63.7801 30.3948 61.543 28.5965 61.5428 25.6007V24.4991L65.4959 23.6817V25.6007C65.4962 26.3247 66.1429 27.2553 67.826 28.0792C69.4215 28.8602 71.569 29.3331 73.6151 29.3331C74.2461 29.3331 75.3439 29.2868 76.5106 29.0372C77.6929 28.7843 78.8374 28.3464 79.6571 27.6388L79.6668 27.629C80.2047 27.1744 80.5451 26.5224 80.6092 25.8136C80.6724 25.1141 80.4607 24.4191 80.0243 23.8761C79.2392 23.0425 78.2534 22.4313 77.1649 22.0997H77.0731L76.9305 22.0646C76.0051 21.8347 74.829 21.5877 73.2215 21.3058L73.2186 21.3048C70.3411 20.7921 66.8818 20.0408 64.5067 18.4728L64.493 18.463L64.4813 18.4552L64.0526 18.1564C63.2681 17.647 62.627 16.9438 62.1913 16.1144C61.757 15.2875 61.5418 14.3623 61.5633 13.4288C61.542 12.2385 61.8061 11.0604 62.3338 9.99424C62.8607 8.92994 63.6351 8.00803 64.5916 7.30772L64.9862 7.03037C67.0033 5.6919 69.7056 5.00483 72.7733 5.00205ZM56.8944 33.2794H52.4286L52.4461 5.53623H56.8944V33.2794ZM47.7831 10.0274H42.5272C41.2702 10.0251 40.0245 10.2726 38.8622 10.756C37.7 11.2393 36.6433 11.9498 35.7528 12.8458C34.8622 13.7419 34.1549 14.8069 33.6727 15.9796C33.1906 17.1523 32.9425 18.4099 32.9432 19.6798V33.2491L28.4774 33.2345V19.6788C28.4832 15.9354 29.9625 12.3451 32.5926 9.69541C35.2231 7.04555 38.7907 5.55178 42.5145 5.546H47.7831V10.0274Z" fill="#120C2A"/>
</g>
<defs>
<clipPath id="clip0_545_827">
<rect width="117.071" height="41.8692" fill="white"/>
</clipPath>
</defs>
</svg>
